<svg version="1.1" id="Layer_1" xmlns="http://www.w3.org/2000/svg" xmlns:xlink="http://www.w3.org/1999/xlink" x="0px" y="0px"
	 width="100%" viewBox="0 0 1024 1024" enable-background="new 0 0 1024 1024" xml:space="preserve">
<path fill="#000000" opacity="1.000000" stroke="none" 
	d="
M1.000000,394.000000 
	C1.000000,262.666687 1.000000,131.833359 1.000000,1.000035 
	C342.333282,1.000023 683.666565,1.000023 1025.000000,1.000012 
	C1025.000000,342.333252 1025.000000,683.666504 1025.000000,1024.999756 
	C683.666809,1024.999878 342.333618,1024.999878 1.000207,1025.000000 
	C1.000000,814.833313 1.000000,604.666687 1.000000,394.000000 
M261.499878,529.798523 
	C501.422180,529.798523 741.344482,529.798523 981.354126,529.798523 
	C981.354126,366.609375 981.354126,204.041321 981.354126,41.420517 
	C668.987549,41.420517 356.927856,41.420517 44.796558,41.420517 
	C44.796558,204.267883 44.796558,366.837341 44.796558,529.798401 
	C116.912117,529.798401 188.705978,529.798401 261.499878,529.798523 
M253.930969,652.999329 
	C250.319122,652.193359 249.961044,655.158813 249.104660,657.321228 
	C230.655807,703.907043 212.244171,750.507629 193.381546,798.228149 
	C173.447357,749.144165 153.939392,701.109619 134.511078,653.271240 
	C114.545776,653.271240 94.819138,653.271240 74.649315,653.271240 
	C75.111275,654.388733 75.409996,655.117676 75.713516,655.844666 
	C103.687317,722.846741 131.685883,789.838623 159.549225,856.886597 
	C160.701950,859.660400 162.199341,860.057190 164.761414,860.045166 
	C182.752594,859.960571 200.745758,859.882629 218.734726,860.099792 
	C222.344604,860.143372 223.744858,858.887024 225.088623,855.687378 
	C250.668182,794.777527 276.392700,733.928467 302.090240,673.068115 
	C304.861938,666.503784 307.652985,659.947693 310.599854,652.999207 
	C291.494904,652.999207 273.173920,652.999207 253.930969,652.999329 
M348.746124,852.831543 
	C392.183044,872.013306 442.396118,858.787537 460.125732,837.420410 
	C451.042023,826.899536 441.941620,816.359314 433.039673,806.049011 
	C418.859528,816.732117 404.014984,823.419678 386.016144,821.090881 
	C370.907349,819.136047 357.558960,807.716675 356.230988,792.848999 
	C393.484406,792.848999 430.699707,792.848999 468.005341,792.848999 
	C468.005341,782.655762 468.903107,772.814819 467.829956,763.193787 
	C465.073090,738.477844 452.559448,719.574524 431.024170,707.099731 
	C412.808228,696.547852 392.970001,694.980835 372.486664,697.813293 
	C355.514832,700.160217 340.490479,706.687561 328.049286,718.515808 
	C311.155487,734.577271 304.275024,754.843628 303.387970,777.744385 
	C302.166382,809.281677 319.640259,838.786316 348.746124,852.831543 
M880.500000,793.001038 
	C900.814392,793.001038 921.128784,793.001038 941.796204,793.001038 
	C943.572571,782.985840 943.438843,773.170654 942.058472,763.271423 
	C939.806641,747.122559 933.652771,732.774475 922.377197,720.950317 
	C905.175903,702.912231 883.503540,696.001221 859.081787,696.582214 
	C839.704834,697.043091 821.848022,702.380859 806.763672,714.846313 
	C783.695923,733.909180 775.316895,759.006958 777.922058,788.261230 
	C780.605896,818.399292 796.163940,840.023438 823.086365,852.757019 
	C846.783630,863.965271 871.886963,864.732727 897.195923,858.308228 
	C910.978394,854.809631 923.141968,848.362122 933.500366,837.997253 
	C924.134766,827.087769 915.010742,816.459534 905.866089,805.807373 
	C892.368713,818.893250 867.045776,826.694214 849.524719,818.002441 
	C839.209229,812.885193 832.035522,805.407104 830.632690,793.000977 
	C847.205444,793.000977 863.352722,793.000977 880.500000,793.001038 
M757.429504,816.716553 
	C761.211365,796.556519 754.040283,780.516113 735.697815,771.838989 
	C726.780212,767.620300 716.761353,765.619812 707.120117,763.072937 
	C698.396851,760.768555 689.453796,759.301208 680.715881,757.045593 
	C675.865967,755.793701 672.738770,752.594238 672.983337,747.020020 
	C673.220764,741.609009 676.751892,739.329956 681.280029,737.814514 
	C690.419128,734.755920 699.740295,735.241394 708.723633,737.673401 
	C719.055176,740.470398 729.074463,744.420776 739.559937,747.982483 
	C743.531555,735.465820 747.770630,722.106506 752.082581,708.517456 
	C724.244690,696.980103 695.853394,692.672119 666.499268,699.129944 
	C650.260193,702.702515 635.959229,710.155029 627.779968,725.685730 
	C616.768982,746.593262 619.260193,772.159729 643.860779,785.970215 
	C654.347534,791.857300 665.651001,794.767822 677.285461,797.071777 
	C685.139771,798.627136 692.948792,800.569214 700.603760,802.908569 
	C704.505188,804.100830 706.600952,807.553833 706.483154,811.813232 
	C706.364868,816.086731 703.750977,818.737915 700.092957,820.437195 
	C698.618713,821.122070 697.027100,821.634399 695.435242,821.973328 
	C683.759155,824.459778 672.218201,822.990479 661.191406,819.235840 
	C651.392395,815.899231 642.071838,811.157593 632.411621,806.980591 
	C627.970398,818.911377 623.294312,831.472900 618.560364,844.189941 
	C619.535339,844.813599 620.184814,845.274902 620.875122,845.663757 
	C636.591248,854.516846 653.441833,859.499573 671.411194,861.227295 
	C689.958496,863.010498 708.172668,862.447876 725.530823,854.951050 
	C742.177063,847.761658 753.248291,835.627747 757.429504,816.716553 
M548.921387,724.703247 
	C547.100647,725.260437 547.083008,725.261230 547.004456,723.472961 
	C546.649414,715.391724 546.305176,707.309998 545.958923,699.271240 
	C529.056641,699.271240 512.656860,699.271240 496.248169,699.271240 
	C496.248169,752.596069 496.248169,805.648743 496.248169,858.731934 
	C514.222656,858.731934 531.949463,858.731934 549.927246,858.731934 
	C549.927246,856.828979 549.926147,855.192139 549.927429,853.555298 
	C549.947449,828.068298 549.822327,802.580017 550.040527,777.094666 
	C550.179993,760.814453 559.841919,747.753052 575.170532,744.556458 
	C584.071960,742.700134 593.452759,743.142212 602.708984,742.544128 
	C602.708984,727.994629 602.708984,712.590027 602.708984,697.004883 
	C580.025146,696.870178 561.067871,703.370483 548.921387,724.703247 
z"/>
<path fill="#FEFEFE" opacity="1.000000" stroke="none" 
	d="
M260.999878,529.798462 
	C188.705978,529.798401 116.912117,529.798401 44.796558,529.798401 
	C44.796558,366.837341 44.796558,204.267883 44.796558,41.420517 
	C356.927856,41.420517 668.987549,41.420517 981.354126,41.420517 
	C981.354126,204.041321 981.354126,366.609375 981.354126,529.798523 
	C741.344482,529.798523 501.422180,529.798523 260.999878,529.798462 
M243.316483,307.015839 
	C244.551361,314.507568 245.250961,322.135468 247.115677,329.467010 
	C254.393051,358.079773 268.992126,382.124664 292.636505,400.273285 
	C314.932556,417.386902 340.201599,426.177185 368.244873,426.941986 
	C371.184509,427.022156 372.917297,428.016144 374.858185,430.180359 
	C381.504852,437.592072 387.897369,445.410797 395.480896,451.769440 
	C417.843475,470.519897 443.435852,478.633698 472.509430,471.903442 
	C488.407867,468.223114 502.105499,460.339233 513.573792,447.786102 
	C505.833221,438.771454 498.345184,429.908722 490.602203,421.274567 
	C489.902405,420.494232 487.158234,420.566772 486.040588,421.289917 
	C471.112549,430.948181 448.603363,428.612030 435.346191,415.859283 
	C448.264862,409.992035 460.293213,402.768829 470.426666,392.964020 
	C504.585083,359.913544 517.517090,319.434662 509.945129,272.885895 
	C502.299286,225.882874 475.540039,192.986664 431.846619,174.501144 
	C405.079895,163.176865 376.882599,162.106644 348.482391,167.039917 
	C316.921814,172.522171 290.829712,187.650223 271.018097,212.943573 
	C249.597336,240.291351 241.134094,271.658203 243.316483,307.015839 
M749.382385,185.013382 
	C730.873291,173.598663 710.416382,169.201340 689.018494,169.072937 
	C648.038269,168.826996 607.055542,169.000732 566.073853,169.000336 
	C564.469543,169.000320 562.865295,169.000320 561.307861,169.000320 
	C561.307861,253.883469 561.307861,338.241577 561.307861,422.492004 
	C582.679749,422.492004 603.742188,422.492004 625.124756,422.492004 
	C625.124756,394.939087 625.124756,367.679016 625.124756,341.001099 
	C639.731018,341.001099 654.010437,340.937988 668.286987,341.112396 
	C669.523682,341.127502 671.149658,342.448517 671.895203,343.611420 
	C674.742126,348.052429 677.271423,352.695648 679.975525,357.229889 
	C693.048767,379.150970 706.140198,401.061188 719.050110,422.682129 
	C742.895142,422.682129 766.291443,422.682129 789.772583,422.682129 
	C770.663452,391.529510 751.682678,360.586182 732.804565,329.810211 
	C740.323730,324.686676 747.460510,320.195068 754.195801,315.165771 
	C775.499939,299.257721 783.028259,277.089539 783.317932,251.381271 
	C783.632385,223.465973 773.528320,201.135468 749.382385,185.013382 
z"/>
<path fill="#FEFEFE" opacity="1.000000" stroke="none" 
	d="
M254.391937,652.999268 
	C273.173920,652.999207 291.494904,652.999207 310.599854,652.999207 
	C307.652985,659.947693 304.861938,666.503784 302.090240,673.068115 
	C276.392700,733.928467 250.668182,794.777527 225.088623,855.687378 
	C223.744858,858.887024 222.344604,860.143372 218.734726,860.099792 
	C200.745758,859.882629 182.752594,859.960571 164.761414,860.045166 
	C162.199341,860.057190 160.701950,859.660400 159.549225,856.886597 
	C131.685883,789.838623 103.687317,722.846741 75.713516,655.844666 
	C75.409996,655.117676 75.111275,654.388733 74.649315,653.271240 
	C94.819138,653.271240 114.545776,653.271240 134.511078,653.271240 
	C153.939392,701.109619 173.447357,749.144165 193.381546,798.228149 
	C212.244171,750.507629 230.655807,703.907043 249.104660,657.321228 
	C249.961044,655.158813 250.319122,652.193359 254.391937,652.999268 
z"/>
<path fill="#FEFEFE" opacity="1.000000" stroke="none" 
	d="
M348.432007,852.614807 
	C319.640259,838.786316 302.166382,809.281677 303.387970,777.744385 
	C304.275024,754.843628 311.155487,734.577271 328.049286,718.515808 
	C340.490479,706.687561 355.514832,700.160217 372.486664,697.813293 
	C392.970001,694.980835 412.808228,696.547852 431.024170,707.099731 
	C452.559448,719.574524 465.073090,738.477844 467.829956,763.193787 
	C468.903107,772.814819 468.005341,782.655762 468.005341,792.848999 
	C430.699707,792.848999 393.484406,792.848999 356.230988,792.848999 
	C357.558960,807.716675 370.907349,819.136047 386.016144,821.090881 
	C404.014984,823.419678 418.859528,816.732117 433.039673,806.049011 
	C441.941620,816.359314 451.042023,826.899536 460.125732,837.420410 
	C442.396118,858.787537 392.183044,872.013306 348.432007,852.614807 
M417.751129,757.186584 
	C412.783203,740.216064 397.569977,734.874939 380.880157,737.267883 
	C365.690216,739.445740 356.741516,749.638062 357.075500,762.738342 
	C377.348206,762.738342 397.620941,762.738342 417.947723,762.738342 
	C417.947723,761.004517 417.947723,759.513794 417.751129,757.186584 
z"/>
<path fill="#FEFEFE" opacity="1.000000" stroke="none" 
	d="
M880.000000,793.000977 
	C863.352722,793.000977 847.205444,793.000977 830.632690,793.000977 
	C832.035522,805.407104 839.209229,812.885193 849.524719,818.002441 
	C867.045776,826.694214 892.368713,818.893250 905.866089,805.807373 
	C915.010742,816.459534 924.134766,827.087769 933.500366,837.997253 
	C923.141968,848.362122 910.978394,854.809631 897.195923,858.308228 
	C871.886963,864.732727 846.783630,863.965271 823.086365,852.757019 
	C796.163940,840.023438 780.605896,818.399292 777.922058,788.261230 
	C775.316895,759.006958 783.695923,733.909180 806.763672,714.846313 
	C821.848022,702.380859 839.704834,697.043091 859.081787,696.582214 
	C883.503540,696.001221 905.175903,702.912231 922.377197,720.950317 
	C933.652771,732.774475 939.806641,747.122559 942.058472,763.271423 
	C943.438843,773.170654 943.572571,782.985840 941.796204,793.001038 
	C921.128784,793.001038 900.814392,793.001038 880.000000,793.000977 
M875.978455,739.228638 
	C867.801514,736.291016 859.437988,736.012085 851.090271,738.067810 
	C837.889648,741.318542 829.922119,753.027466 831.198303,762.714294 
	C851.439758,762.714294 871.682922,762.714294 892.138184,762.714294 
	C891.859009,751.471558 886.332275,744.166138 875.978455,739.228638 
z"/>
<path fill="#FEFEFE" opacity="1.000000" stroke="none" 
	d="
M757.275269,817.126160 
	C753.248291,835.627747 742.177063,847.761658 725.530823,854.951050 
	C708.172668,862.447876 689.958496,863.010498 671.411194,861.227295 
	C653.441833,859.499573 636.591248,854.516846 620.875122,845.663757 
	C620.184814,845.274902 619.535339,844.813599 618.560364,844.189941 
	C623.294312,831.472900 627.970398,818.911377 632.411621,806.980591 
	C642.071838,811.157593 651.392395,815.899231 661.191406,819.235840 
	C672.218201,822.990479 683.759155,824.459778 695.435242,821.973328 
	C697.027100,821.634399 698.618713,821.122070 700.092957,820.437195 
	C703.750977,818.737915 706.364868,816.086731 706.483154,811.813232 
	C706.600952,807.553833 704.505188,804.100830 700.603760,802.908569 
	C692.948792,800.569214 685.139771,798.627136 677.285461,797.071777 
	C665.651001,794.767822 654.347534,791.857300 643.860779,785.970215 
	C619.260193,772.159729 616.768982,746.593262 627.779968,725.685730 
	C635.959229,710.155029 650.260193,702.702515 666.499268,699.129944 
	C695.853394,692.672119 724.244690,696.980103 752.082581,708.517456 
	C747.770630,722.106506 743.531555,735.465820 739.559937,747.982483 
	C729.074463,744.420776 719.055176,740.470398 708.723633,737.673401 
	C699.740295,735.241394 690.419128,734.755920 681.280029,737.814514 
	C676.751892,739.329956 673.220764,741.609009 672.983337,747.020020 
	C672.738770,752.594238 675.865967,755.793701 680.715881,757.045593 
	C689.453796,759.301208 698.396851,760.768555 707.120117,763.072937 
	C716.761353,765.619812 726.780212,767.620300 735.697815,771.838989 
	C754.040283,780.516113 761.211365,796.556519 757.275269,817.126160 
z"/>
<path fill="#FEFEFE" opacity="1.000000" stroke="none" 
	d="
M549.070068,724.343262 
	C561.067871,703.370483 580.025146,696.870178 602.708984,697.004883 
	C602.708984,712.590027 602.708984,727.994629 602.708984,742.544128 
	C593.452759,743.142212 584.071960,742.700134 575.170532,744.556458 
	C559.841919,747.753052 550.179993,760.814453 550.040527,777.094666 
	C549.822327,802.580017 549.947449,828.068298 549.927429,853.555298 
	C549.926147,855.192139 549.927246,856.828979 549.927246,858.731934 
	C531.949463,858.731934 514.222656,858.731934 496.248169,858.731934 
	C496.248169,805.648743 496.248169,752.596069 496.248169,699.271240 
	C512.656860,699.271240 529.056641,699.271240 545.958923,699.271240 
	C546.305176,707.309998 546.649414,715.391724 547.004456,723.472961 
	C547.083008,725.261230 547.100647,725.260437 549.070068,724.343262 
z"/>
<path fill="#010101" opacity="1.000000" stroke="none" 
	d="
M243.255859,306.555328 
	C241.134094,271.658203 249.597336,240.291351 271.018097,212.943573 
	C290.829712,187.650223 316.921814,172.522171 348.482391,167.039917 
	C376.882599,162.106644 405.079895,163.176865 431.846619,174.501144 
	C475.540039,192.986664 502.299286,225.882874 509.945129,272.885895 
	C517.517090,319.434662 504.585083,359.913544 470.426666,392.964020 
	C460.293213,402.768829 448.264862,409.992035 435.346191,415.859283 
	C448.603363,428.612030 471.112549,430.948181 486.040588,421.289917 
	C487.158234,420.566772 489.902405,420.494232 490.602203,421.274567 
	C498.345184,429.908722 505.833221,438.771454 513.573792,447.786102 
	C502.105499,460.339233 488.407867,468.223114 472.509430,471.903442 
	C443.435852,478.633698 417.843475,470.519897 395.480896,451.769440 
	C387.897369,445.410797 381.504852,437.592072 374.858185,430.180359 
	C372.917297,428.016144 371.184509,427.022156 368.244873,426.941986 
	C340.201599,426.177185 314.932556,417.386902 292.636505,400.273285 
	C268.992126,382.124664 254.393051,358.079773 247.115677,329.467010 
	C245.250961,322.135468 244.551361,314.507568 243.255859,306.555328 
M307.001953,285.798859 
	C307.322266,295.248047 306.995819,304.772308 308.082672,314.132477 
	C311.515045,343.692566 338.981995,373.493744 373.006256,374.350372 
	C399.629608,375.020660 420.843445,365.140778 435.604065,343.058502 
	C448.884125,323.191193 450.858856,300.956604 447.091400,277.782043 
	C441.568756,243.810806 412.202148,216.514389 374.084961,218.841827 
	C354.078430,220.063416 337.385986,227.584702 324.365875,242.950668 
	C314.098602,255.067841 309.348297,269.467010 307.001953,285.798859 
z"/>
<path fill="#010101" opacity="1.000000" stroke="none" 
	d="
M749.674683,185.233490 
	C773.528320,201.135468 783.632385,223.465973 783.317932,251.381271 
	C783.028259,277.089539 775.499939,299.257721 754.195801,315.165771 
	C747.460510,320.195068 740.323730,324.686676 732.804565,329.810211 
	C751.682678,360.586182 770.663452,391.529510 789.772583,422.682129 
	C766.291443,422.682129 742.895142,422.682129 719.050110,422.682129 
	C706.140198,401.061188 693.048767,379.150970 679.975525,357.229889 
	C677.271423,352.695648 674.742126,348.052429 671.895203,343.611420 
	C671.149658,342.448517 669.523682,341.127502 668.286987,341.112396 
	C654.010437,340.937988 639.731018,341.001099 625.124756,341.001099 
	C625.124756,367.679016 625.124756,394.939087 625.124756,422.492004 
	C603.742188,422.492004 582.679749,422.492004 561.307861,422.492004 
	C561.307861,338.241577 561.307861,253.883469 561.307861,169.000320 
	C562.865295,169.000320 564.469543,169.000320 566.073853,169.000336 
	C607.055542,169.000732 648.038269,168.826996 689.018494,169.072937 
	C710.416382,169.201340 730.873291,173.598663 749.674683,185.233490 
M700.336182,222.957077 
	C697.225769,221.968338 694.152039,220.268143 690.998962,220.105377 
	C669.168091,218.978409 647.320740,218.171463 625.218323,217.250900 
	C625.218323,242.855835 625.218323,267.221832 625.218323,291.131195 
	C645.477539,291.131195 665.551880,291.513580 685.604553,291.018646 
	C703.958191,290.565674 720.622314,278.708649 719.057678,253.542969 
	C718.228760,240.210770 713.119995,229.729019 700.336182,222.957077 
z"/>
<path fill="#020202" opacity="1.000000" stroke="none" 
	d="
M417.849426,757.604797 
	C417.947723,759.513794 417.947723,761.004517 417.947723,762.738342 
	C397.620941,762.738342 377.348206,762.738342 357.075012,762.733887 
	C356.741516,749.638062 365.690216,739.445740 380.880157,737.267883 
	C397.569977,734.874939 412.783203,740.216064 417.849426,757.604797 
z"/>
<path fill="#010101" opacity="1.000000" stroke="none" 
	d="
M876.292664,739.457153 
	C886.332275,744.166138 891.859009,751.471558 892.138184,762.714294 
	C871.682922,762.714294 851.439758,762.714294 831.198303,762.714294 
	C829.922119,753.027466 837.889648,741.318542 851.090271,738.067810 
	C859.437988,736.012085 867.801514,736.291016 876.292664,739.457153 
z"/>
<path fill="#FEFEFE" opacity="1.000000" stroke="none" 
	d="
M307.010651,285.333771 
	C309.348297,269.467010 314.098602,255.067841 324.365875,242.950668 
	C337.385986,227.584702 354.078430,220.063416 374.084961,218.841827 
	C412.202148,216.514389 441.568756,243.810806 447.091400,277.782043 
	C450.858856,300.956604 448.884125,323.191193 435.604065,343.058502 
	C420.843445,365.140778 399.629608,375.020660 373.006256,374.350372 
	C338.981995,373.493744 311.515045,343.692566 308.082672,314.132477 
	C306.995819,304.772308 307.322266,295.248047 307.010651,285.333771 
z"/>
<path fill="#FEFEFE" opacity="1.000000" stroke="none" 
	d="
M700.693665,223.090454 
	C713.119995,229.729019 718.228760,240.210770 719.057678,253.542969 
	C720.622314,278.708649 703.958191,290.565674 685.604553,291.018646 
	C665.551880,291.513580 645.477539,291.131195 625.218323,291.131195 
	C625.218323,267.221832 625.218323,242.855835 625.218323,217.250900 
	C647.320740,218.171463 669.168091,218.978409 690.998962,220.105377 
	C694.152039,220.268143 697.225769,221.968338 700.693665,223.090454 
z"/>
</svg>